<?xml version="1.0" encoding="UTF-8"?>
<!DOCTYPE svg PUBLIC "-//W3C//DTD SVG 1.1//EN" "http://www.w3.org/Graphics/SVG/1.1/DTD/svg11.dtd">
<svg xmlns="http://www.w3.org/2000/svg" version="1.1" width="800px" height="800px" style="shape-rendering:geometricPrecision; text-rendering:geometricPrecision; image-rendering:optimizeQuality; fill-rule:evenodd; clip-rule:evenodd" xmlns:xlink="http://www.w3.org/1999/xlink">
<g><path style="opacity:0.93" fill="black" d="M 273.5,60.5 C 309.168,60.3333 344.835,60.5 380.5,61C 418.125,64.8254 454.792,72.8254 490.5,85C 517.262,94.6328 540.762,109.466 561,129.5C 571.347,141.2 577.68,154.867 580,170.5C 580.667,218.167 580.667,265.833 580,313.5C 577.408,328.681 571.075,342.015 561,353.5C 543.494,371.011 523.328,384.511 500.5,394C 454.16,411.717 406.16,421.384 356.5,423C 298.429,426.463 241.429,420.463 185.5,405C 160.407,397.915 137.074,387.082 115.5,372.5C 114.334,394.826 114.167,417.159 115,439.5C 116.288,446.109 119.288,451.776 124,456.5C 138.707,469.602 155.207,479.769 173.5,487C 221.541,504.147 271.208,512.647 322.5,512.5C 330.844,512.394 339.177,512.061 347.5,511.5C 362.026,510.865 370.359,517.698 372.5,532C 371.365,543.131 365.365,549.798 354.5,552C 295.665,555.725 237.998,549.391 181.5,533C 171.468,529.543 161.468,525.877 151.5,522C 142.374,517.604 133.374,512.937 124.5,508C 121.333,505.5 118.167,503 115,500.5C 114.333,523.167 114.333,545.833 115,568.5C 119.068,581.245 126.901,591.078 138.5,598C 164.824,613.687 193.157,624.687 223.5,631C 270.1,640.305 317.1,643.138 364.5,639.5C 383.165,642.161 389.665,652.494 384,670.5C 380.855,674.491 377.022,677.657 372.5,680C 321.462,684.1 270.462,681.433 219.5,672C 182.523,665.125 148.19,651.792 116.5,632C 96.6415,618.812 82.8082,600.979 75,578.5C 74.3333,439.833 74.3333,301.167 75,162.5C 82.0694,142.404 94.2361,125.904 111.5,113C 138.418,94.7953 167.751,81.7953 199.5,74C 211.891,71.4365 224.224,68.7699 236.5,66C 249.093,64.8286 261.427,62.9953 273.5,60.5 Z M 298.5,100.5 C 357.955,97.432 415.955,104.932 472.5,123C 491.619,129.223 508.952,138.556 524.5,151C 544.736,168.938 544.402,186.604 523.5,204C 510.283,214.066 495.949,222.066 480.5,228C 430.903,245.047 379.736,253.214 327,252.5C 274.657,253.094 223.823,244.927 174.5,228C 154.37,221.015 136.87,209.848 122,194.5C 114.782,186.096 113.115,176.763 117,166.5C 121.018,158.146 126.852,151.313 134.5,146C 153.585,134.183 173.918,124.849 195.5,118C 229.35,108.572 263.683,102.739 298.5,100.5 Z M 114.5,242.5 C 150.023,264.58 188.69,279.08 230.5,286C 311.079,299.943 390.746,296.276 469.5,275C 494.22,267.71 517.22,256.877 538.5,242.5C 539.666,265.159 539.833,287.826 539,310.5C 535.187,321.102 528.687,329.769 519.5,336.5C 501.318,348.204 481.985,357.371 461.5,364C 375.89,387.494 289.89,388.494 203.5,367C 177.373,360.413 153.373,349.413 131.5,334C 123.559,327.407 118.059,319.241 115,309.5C 114.5,287.169 114.333,264.836 114.5,242.5 Z"/></g>
<g><path style="opacity:0.922" fill="black" d="M 546.5,409.5 C 614.659,407.466 666.825,435.132 703,492.5C 725.727,532.582 731.061,574.915 719,619.5C 695.663,687.593 648.497,727.76 577.5,740C 507.439,743.222 453.606,715.388 416,656.5C 388.514,604.306 387.514,551.64 413,498.5C 442.776,446.698 487.276,417.032 546.5,409.5 Z M 545.5,450.5 C 600.276,447.331 641.776,468.997 670,515.5C 691.673,560.985 689.006,604.985 662,647.5C 629.823,688.121 587.989,704.621 536.5,697C 483.207,684.041 450.374,650.874 438,597.5C 430.759,539.826 451.592,495.659 500.5,465C 507.651,461.505 514.985,458.505 522.5,456C 530.232,453.958 537.899,452.124 545.5,450.5 Z M 548.5,502.5 C 549.5,502.5 550.5,502.5 551.5,502.5C 551.667,518.503 551.5,534.503 551,550.5C 532.043,542.3 527.376,528.966 537,510.5C 540.464,507.195 544.297,504.528 548.5,502.5 Z M 568.5,588.5 C 588.942,594.052 596.442,607.052 591,627.5C 586.405,636.476 579.072,641.809 569,643.5C 568.5,625.17 568.333,606.836 568.5,588.5 Z"/></g>
<g><path style="opacity:0.963" fill="black" d="M 550.5,457.5 C 556.833,457.5 563.167,457.5 569.5,457.5C 569.5,464.167 569.5,470.833 569.5,477.5C 594.664,479.745 610.998,492.911 618.5,517C 618.167,517.5 617.833,518 617.5,518.5C 609.594,521.704 601.76,525.038 594,528.5C 590.473,514.976 582.14,505.976 569,501.5C 568.167,519.509 568.334,537.509 569.5,555.5C 586.452,559.223 600.952,567.223 613,579.5C 623.657,597.297 625.324,615.963 618,635.5C 608.412,655.889 592.245,666.556 569.5,667.5C 569.5,675.833 569.5,684.167 569.5,692.5C 563.167,692.5 556.833,692.5 550.5,692.5C 550.5,684.167 550.5,675.833 550.5,667.5C 520.602,664.274 502.269,647.941 495.5,618.5C 504.8,615.621 514.134,612.954 523.5,610.5C 525.916,627.391 535.249,638.058 551.5,642.5C 551.5,622.833 551.5,603.167 551.5,583.5C 535.823,580.08 522.656,572.414 512,560.5C 499.061,537.924 500.061,515.924 515,494.5C 524.427,483.871 536.26,478.204 550.5,477.5C 550.5,470.833 550.5,464.167 550.5,457.5 Z M 548.5,502.5 C 544.297,504.528 540.464,507.195 537,510.5C 527.376,528.966 532.043,542.3 551,550.5C 551.5,534.503 551.667,518.503 551.5,502.5C 550.5,502.5 549.5,502.5 548.5,502.5 Z M 568.5,588.5 C 568.333,606.836 568.5,625.17 569,643.5C 579.072,641.809 586.405,636.476 591,627.5C 596.442,607.052 588.942,594.052 568.5,588.5 Z"/></g>
</svg>
